# xmcd CD database file
#
# Track frame offsets:
#	150
#	38523
#	70180
#	116547
#	139696
#	171000
#
# Disc length: 2963 seconds
#
# Revision: 0
# Processed by: cddbd v1.5PL3 Copyright (c) Steve Scherf et al.
# Submitted via: CDex 1.51
#
DISCID=470b9106
DTITLE=Pedro Iturralde - featuring Hampton Hawes
DYEAR=1968
DGENRE=Jazz
TTITLE0=On Green Dolphin Street
TTITLE1=Black Forest Blues
TTITLE2=Autumn leaves
TTITLE3=Oleo
TTITLE4=Moonlight in Vermont
TTITLE5=My funny Valentine
EXTD=YEAR: 1968
EXTT0=
EXTT1=
EXTT2=
EXTT3=
EXTT4=
EXTT5=
PLAYORDER=
